<svg xmlns="http://www.w3.org/2000/svg" xmlns:xl="http://www.w3.org/1999/xlink" width="488.559" height="352.496" version="1.1" viewBox="-794.201 1190.051 488.559 352.496"><defs><marker id="FilledArrow_Marker" stroke-linejoin="miter" stroke-miterlimit="10" color="#000" markerHeight="8" markerUnits="strokeWidth" markerWidth="10" orient="auto" overflow="visible" viewBox="-1 -4 10 8"><g><path fill="currentColor" stroke="currentColor" stroke-width="1" d="M 8 0 L 0 -3 L 0 3 Z"/></g></marker></defs><metadata>Produced by OmniGraffle 7.20\n2022-06-25 18:53:20 +0000</metadata><g id="Two_phase_last_one" fill="none" fill-opacity="1" stroke="none" stroke-dasharray="none" stroke-opacity="1"><title>Two phase last one</title><rect width="488.559" height="352.496" x="-794.201" y="1190.051" fill="#fff"/><g id="Two_phase_last_one_Layer_1"><title>Layer 1</title><g id="Graphic_697"><circle cx="-731.339" cy="1479.685" r="62.362" fill="#fff"/><circle cx="-731.339" cy="1479.685" r="62.362" stroke="gray" stroke-linecap="round" stroke-linejoin="round" stroke-width="1"/><text fill="#000" transform="translate(-776.2284 1441.0315)"><tspan x="25.922" y="15" fill="#000" font-family="Helvetica Neue" font-size="16">Done</tspan></text></g><g id="Graphic_696"><circle cx="-617.953" cy="1366.299" r="62.362" fill="#fff"/><circle cx="-617.953" cy="1366.299" r="62.362" stroke="gray" stroke-linecap="round" stroke-linejoin="round" stroke-width="1"/><text fill="#000" transform="translate(-662.8425 1327.6457)"><tspan x=".426" y="15" fill="#000" font-family="Helvetica Neue" font-size="16">state: empty</tspan> <tspan x="1.474" y="51.448" fill="#000" font-family="Helvetica Neue" font-size="16">entry: return</tspan></text></g><g id="Graphic_694"><circle cx="-731.339" cy="1252.913" r="62.362" fill="#fff"/><circle cx="-731.339" cy="1252.913" r="62.362" stroke="gray" stroke-linecap="round" stroke-linejoin="round" stroke-width="1"/><text fill="#000" transform="translate(-776.2284 1214.2599)"><tspan x="27.706" y="15" fill="#000" font-family="Helvetica Neue" font-size="16">Start</tspan></text></g><g id="Line_699"><path stroke="#000" stroke-linecap="round" stroke-linejoin="round" stroke-width="1" marker-end="url(#FilledArrow_Marker)" d="M -555.7483 1361.8532 C -539.27014 1361.1396 -520.0855 1360.63 -498.89765 1360.63 C -478.1133 1360.63 -458.2758 1361.1203 -440.626 1361.8126"/></g><g id="Graphic_700"><circle cx="-368.504" cy="1366.299" r="62.362" fill="#fff"/><circle cx="-368.504" cy="1366.299" r="62.362" stroke="gray" stroke-linecap="round" stroke-linejoin="round" stroke-width="1"/><text fill="#000" transform="translate(-413.3937 1327.6457)"><tspan x="12.442" y="15" fill="#000" font-family="Helvetica Neue" font-size="16">state: full</tspan> <tspan x="1.474" y="51.448" fill="#000" font-family="Helvetica Neue" font-size="16">entry: return</tspan> <tspan x="4.594" y="69.896" fill="#000" font-family="Helvetica Neue" font-size="16">exit: signal, </tspan> <tspan x="1.626" y="88.344" fill="#000" font-family="Helvetica Neue" font-size="16">wait, maybe </tspan> <tspan x="25.786" y="106.792" fill="#000" font-family="Helvetica Neue" font-size="16">swap</tspan></text></g><g id="Graphic_703"><text fill="#000" transform="translate(-522.2441 1337.2835)"><tspan x="0" y="15" fill="#000" font-family="Helvetica Neue" font-size="16">do_fill</tspan></text></g><g id="Line_704"><line x1="-687.242" x2="-669.05" y1="1297.01" y2="1315.202" stroke="#000" stroke-linecap="round" stroke-linejoin="round" stroke-width="1" marker-end="url(#FilledArrow_Marker)"/></g><g id="Line_705"><line x1="-662.049" x2="-680.242" y1="1410.396" y2="1428.588" stroke="#000" stroke-linecap="round" stroke-linejoin="round" stroke-width="1" marker-end="url(#FilledArrow_Marker)"/></g><g id="Line_1262"><path stroke="#000" stroke-linecap="round" stroke-linejoin="round" stroke-width="1" marker-end="url(#FilledArrow_Marker)" d="M -418.87656 1403.079 C -439.4178 1413.945 -464.9973 1422.9922 -493.22836 1422.9922 C -517.5308 1422.9922 -539.8683 1416.2878 -558.7183 1407.4902"/></g><g id="Graphic_1358"><text fill="#000" transform="translate(-515.1108 1433.6615)"><tspan x="0" y="15" fill="#000" font-family="Helvetica Neue" font-size="16">push</tspan></text></g></g></g></svg>