<svg xmlns="http://www.w3.org/2000/svg" xmlns:xlink="http://www.w3.org/1999/xlink" contentStyleType="text/css" height="886px" preserveAspectRatio="none" style="width:1264px;height:886px;background:#FFFFFF;" version="1.1" viewBox="0 0 1264 886" width="1264px" zoomAndPan="magnify"><defs/><g><text fill="#000000" font-family="sans-serif" font-size="14" font-weight="bold" lengthAdjust="spacing" textLength="211.415" x="519.3675" y="22.9951">Local Query State Machine</text><ellipse cx="799.39" cy="53.2969" fill="#222222" rx="10" ry="10" style="stroke:#222222;stroke-width:1.0;"/><g id="uninitialized"><rect fill="#F1F1F1" height="78.2031" rx="12.5" ry="12.5" style="stroke:#181818;stroke-width:0.5;" width="354.9805" x="621.9" y="124.2969"/><line style="stroke:#181818;stroke-width:0.5;" x1="621.9" x2="976.8805" y1="150.5938" y2="150.5938"/><text fill="#000000" font-family="sans-serif" font-size="14" lengthAdjust="spacing" textLength="84.9844" x="756.898" y="142.292">uninitialized</text><text fill="#000000" font-family="sans-serif" font-size="12" lengthAdjust="spacing" textLength="334.9805" x="626.9" y="166.7324">The initial query state from a C.41-noncompliant query.</text><text fill="#000000" font-family="sans-serif" font-size="12" lengthAdjust="spacing" textLength="330.7441" x="626.9" y="180.7012">The "ready" event is only necessary to compensate for</text><text fill="#000000" font-family="sans-serif" font-size="12" lengthAdjust="spacing" textLength="160.3711" x="626.9" y="194.6699">the existence of this state.</text></g><path d="M345.26,279.4969 L701.5217,279.4969 A12.5,12.5 0 0 1 714.0217,291.9969 L714.0217,366.6688 L332.76,366.6688 L332.76,291.9969 A12.5,12.5 0 0 1 345.26,279.4969 " fill="#F1F1F1" style="stroke:#F1F1F1;stroke-width:1.0;"/><rect fill="none" height="318.1719" rx="12.5" ry="12.5" style="stroke:#181818;stroke-width:0.5;" width="381.2617" x="332.76" y="279.4969"/><line style="stroke:#181818;stroke-width:0.5;" x1="332.76" x2="714.0217" y1="366.6688" y2="366.6688"/><line style="stroke:#181818;stroke-width:0.5;" x1="332.76" x2="714.0217" y1="305.7938" y2="305.7938"/><text fill="#000000" font-family="sans-serif" font-size="14" lengthAdjust="spacing" textLength="110.9746" x="467.9036" y="297.492">everything_else</text><text fill="#000000" font-family="sans-serif" font-size="12" lengthAdjust="spacing" textLength="345.3516" x="337.76" y="316.9324">This state represents an initialized query that has not yet</text><text fill="#000000" font-family="sans-serif" font-size="12" lengthAdjust="spacing" textLength="353.5254" x="337.76" y="330.9012">reached a final state. Its internal state is not yet modelled,</text><text fill="#000000" font-family="sans-serif" font-size="12" lengthAdjust="spacing" textLength="356.2617" x="337.76" y="344.8699">so the inner state machine should be treated as illustrative</text><text fill="#000000" font-family="sans-serif" font-size="12" lengthAdjust="spacing" textLength="144.3164" x="337.76" y="358.8387">only and not normative.</text><ellipse cx="392.64" cy="387.6688" fill="#222222" rx="10" ry="10" style="stroke:#222222;stroke-width:1.0;"/><g id="everything_else.initialized"><rect fill="#F1F1F1" height="50" rx="12.5" ry="12.5" style="stroke:#181818;stroke-width:0.5;" width="87.2383" x="349.02" y="434.6688"/><line style="stroke:#181818;stroke-width:0.5;" x1="349.02" x2="436.2583" y1="460.9656" y2="460.9656"/><text fill="#000000" font-family="sans-serif" font-size="14" lengthAdjust="spacing" textLength="67.2383" x="359.02" y="452.6639">initialized</text></g><g id="everything_else.processing"><rect fill="#F1F1F1" height="50" rx="12.5" ry="12.5" style="stroke:#181818;stroke-width:0.5;" width="95.7559" x="344.76" y="537.6688"/><line style="stroke:#181818;stroke-width:0.5;" x1="344.76" x2="440.5159" y1="563.9656" y2="563.9656"/><text fill="#000000" font-family="sans-serif" font-size="14" lengthAdjust="spacing" textLength="75.7559" x="354.76" y="555.6639">processing</text></g><g id="everything_else.in_progress"><rect fill="#F1F1F1" height="50" rx="12.5" ry="12.5" style="stroke:#181818;stroke-width:0.5;" width="100.8145" x="514.23" y="537.6688"/><line style="stroke:#181818;stroke-width:0.5;" x1="514.23" x2="615.0445" y1="563.9656" y2="563.9656"/><text fill="#000000" font-family="sans-serif" font-size="14" lengthAdjust="spacing" textLength="80.8145" x="524.23" y="555.6639">in_progress</text></g><!--link *start*everything_else to initialized--><g id="link_*start*everything_else_initialized"><path d="M392.64,398.1088 C392.64,407.3688 392.64,415.8588 392.64,428.3488 " fill="none" id="*start*everything_else-to-initialized" style="stroke:#181818;stroke-width:1.0;"/><polygon fill="#181818" points="392.64,434.3488,396.64,425.3488,392.64,429.3488,388.64,425.3488,392.64,434.3488" style="stroke:#181818;stroke-width:1.0;"/></g><!--link initialized to processing--><g id="link_initialized_processing"><path d="M392.64,485.1188 C392.64,500.9988 392.64,515.6088 392.64,531.4488 " fill="none" id="initialized-to-processing" style="stroke:#181818;stroke-width:1.0;"/><polygon fill="#181818" points="392.64,537.4488,396.64,528.4488,392.64,532.4488,388.64,528.4488,392.64,537.4488" style="stroke:#181818;stroke-width:1.0;"/><text fill="#000000" font-family="sans-serif" font-size="13" lengthAdjust="spacing" textLength="44.6367" x="393.64" y="515.7356">submit</text></g><!--link processing to in_progress--><g id="link_processing_in_progress"><path d="M441.01,562.6688 C463.76,562.6688 484.89,562.6688 507.93,562.6688 " fill="none" id="processing-to-in_progress" style="stroke:#181818;stroke-width:1.0;"/><polygon fill="#181818" points="513.93,562.6688,504.93,558.6688,508.93,562.6688,504.93,566.6688,513.93,562.6688" style="stroke:#181818;stroke-width:1.0;"/><text fill="#000000" font-family="sans-serif" font-size="13" lengthAdjust="spacing" textLength="54.5264" x="450.37" y="555.7356">suspend</text></g><!--reverse link processing to in_progress--><g id="link_processing_in_progress"><path d="M446.6386,581.323 C451.1686,582.463 449.92,581.9688 454.37,582.6688 C474.57,585.8588 480.16,585.7388 500.37,582.6688 C504.76,581.9988 509.27,581.0888 513.75,580.0288 " fill="none" id="processing-backto-in_progress" style="stroke:#181818;stroke-width:1.0;"/><polygon fill="#181818" points="440.82,579.8588,448.5717,585.9342,445.6688,581.079,450.5241,578.1761,440.82,579.8588" style="stroke:#181818;stroke-width:1.0;"/><text fill="#000000" font-family="sans-serif" font-size="13" lengthAdjust="spacing" textLength="44.6367" x="455.37" y="578.7356">submit</text></g><g id="aborted"><rect fill="#F1F1F1" height="64.2344" rx="12.5" ry="12.5" style="stroke:#181818;stroke-width:0.5;" width="198.7813" x="7" y="674.6669"/><line style="stroke:#181818;stroke-width:0.5;" x1="7" x2="205.7813" y1="700.9638" y2="700.9638"/><text fill="#000000" font-family="sans-serif" font-size="14" lengthAdjust="spacing" textLength="54.7764" x="79.0024" y="692.662">aborted</text><text fill="#000000" font-family="sans-serif" font-size="12" lengthAdjust="spacing" textLength="173.5605" x="12" y="717.1024">The query failed to complete</text><text fill="#000000" font-family="sans-serif" font-size="12" lengthAdjust="spacing" textLength="178.7813" x="12" y="731.0712">because of a resource failure.</text></g><g id="cancelled"><rect fill="#F1F1F1" height="64.2344" rx="12.5" ry="12.5" style="stroke:#181818;stroke-width:0.5;" width="187.5605" x="795.61" y="674.6669"/><line style="stroke:#181818;stroke-width:0.5;" x1="795.61" x2="983.1705" y1="700.9638" y2="700.9638"/><text fill="#000000" font-family="sans-serif" font-size="14" lengthAdjust="spacing" textLength="66.7393" x="856.0206" y="692.662">cancelled</text><text fill="#000000" font-family="sans-serif" font-size="12" lengthAdjust="spacing" textLength="167.5605" x="800.61" y="717.1024">The query was cancelled by</text><text fill="#000000" font-family="sans-serif" font-size="12" lengthAdjust="spacing" textLength="166.957" x="800.61" y="731.0712">the user before completion.</text></g><g id="error"><rect fill="#F1F1F1" height="64.2344" rx="12.5" ry="12.5" style="stroke:#181818;stroke-width:0.5;" width="191.8203" x="647.48" y="815.9069"/><line style="stroke:#181818;stroke-width:0.5;" x1="647.48" x2="839.3003" y1="842.2038" y2="842.2038"/><text fill="#000000" font-family="sans-serif" font-size="14" lengthAdjust="spacing" textLength="34.4463" x="726.167" y="833.902">error</text><text fill="#000000" font-family="sans-serif" font-size="12" lengthAdjust="spacing" textLength="171.8203" x="652.48" y="858.3424">The state machine was used</text><text fill="#000000" font-family="sans-serif" font-size="12" lengthAdjust="spacing" textLength="157.4238" x="652.48" y="872.3112">incorrectly by query code.</text></g><g id="success"><rect fill="#F1F1F1" height="64.2344" rx="12.5" ry="12.5" style="stroke:#181818;stroke-width:0.5;" width="199.6719" x="400.55" y="674.6669"/><line style="stroke:#181818;stroke-width:0.5;" x1="400.55" x2="600.2219" y1="700.9638" y2="700.9638"/><text fill="#000000" font-family="sans-serif" font-size="14" lengthAdjust="spacing" textLength="54.7627" x="473.0046" y="692.662">success</text><text fill="#000000" font-family="sans-serif" font-size="12" lengthAdjust="spacing" textLength="179.6719" x="405.55" y="717.1024">The query completed and has</text><text fill="#000000" font-family="sans-serif" font-size="12" lengthAdjust="spacing" textLength="136.2012" x="405.55" y="731.0712">returned all its results.</text></g><!--link *start* to uninitialized--><g id="link_*start*_uninitialized"><path d="M799.39,63.5069 C799.39,76.8869 799.39,96.4669 799.39,118.2569 " fill="none" id="*start*-to-uninitialized" style="stroke:#181818;stroke-width:1.0;"/><polygon fill="#181818" points="799.39,124.2569,803.39,115.2569,799.39,119.2569,795.39,115.2569,799.39,124.2569" style="stroke:#181818;stroke-width:1.0;"/></g><!--link uninitialized to everything_else--><g id="link_uninitialized_everything_else"><path d="M760.43,202.9569 C739.48,223.6969 716.3541,246.5858 687.6641,274.9858 " fill="none" id="uninitialized-to-everything_else" style="stroke:#181818;stroke-width:1.0;"/><polygon fill="#181818" points="683.4,279.2069,692.6102,275.7181,686.9534,275.6893,686.9822,270.0326,683.4,279.2069" style="stroke:#181818;stroke-width:1.0;"/><text fill="#000000" font-family="sans-serif" font-size="13" lengthAdjust="spacing" textLength="37.2544" x="725.39" y="245.5638">ready</text></g><!--link uninitialized to aborted--><g id="link_uninitialized_aborted"><path d="M621.43,185.8969 C492,204.7869 330.82,236.0469 279.39,279.4969 C154.32,385.1769 119.315,588.9973 110.055,668.3973 " fill="none" id="uninitialized-to-aborted" style="stroke:#181818;stroke-width:1.0;"/><polygon fill="#181818" points="109.36,674.3569,114.3756,665.8808,109.9392,669.3905,106.4295,664.9541,109.36,674.3569" style="stroke:#181818;stroke-width:1.0;"/><text fill="#000000" font-family="sans-serif" font-size="13" lengthAdjust="spacing" textLength="34.6138" x="280.39" y="443.1538">abort</text></g><!--link uninitialized to cancelled--><g id="link_uninitialized_cancelled"><path d="M805.79,202.8969 C822.76,304.9569 867.6659,575.0981 883.1959,668.4981 " fill="none" id="uninitialized-to-cancelled" style="stroke:#181818;stroke-width:1.0;"/><polygon fill="#181818" points="884.18,674.4169,886.6496,664.8827,883.3599,669.4846,878.758,666.1949,884.18,674.4169" style="stroke:#181818;stroke-width:1.0;"/><text fill="#000000" font-family="sans-serif" font-size="13" lengthAdjust="spacing" textLength="42.1104" x="871.39" y="443.1538">cancel</text></g><!--link uninitialized to error--><g id="link_uninitialized_error"><path d="M850.72,202.8669 C972.23,298.5669 1257.15,553.0169 1117.39,738.9069 C1083.98,783.3369 944.9922,814.2841 845.6822,831.4641 " fill="none" id="uninitialized-to-error" style="stroke:#181818;stroke-width:1.0;"/><polygon fill="#181818" points="839.77,832.4869,849.3201,834.8942,844.6968,831.6346,847.9564,827.0113,839.77,832.4869" style="stroke:#181818;stroke-width:1.0;"/><text fill="#000000" font-family="sans-serif" font-size="13" lengthAdjust="spacing" textLength="35.0518" x="1155.39" y="640.7338">finish</text></g><!--link everything_else to everything_else--><g id="link_everything_else_everything_else"><path d="M714.34,407.4169 C735.41,413.3369 749.02,423.7269 749.02,438.5869 C749.02,453.4369 741.1863,462.2039 720.1163,468.1239 " fill="none" id="everything_else-to-everything_else" style="stroke:#181818;stroke-width:1.0;"/><polygon fill="#181818" points="714.34,469.7469,724.0865,471.1633,719.1536,468.3944,721.9225,463.4615,714.34,469.7469" style="stroke:#181818;stroke-width:1.0;"/><text fill="#000000" font-family="sans-serif" font-size="13" lengthAdjust="spacing" textLength="37.2544" x="755.02" y="443.1538">ready</text></g><!--link everything_else to success--><g id="link_everything_else_success"><path d="M509.71,597.8969 C507.2,626.9269 505.3567,648.3192 503.6367,668.2192 " fill="none" id="everything_else-to-success" style="stroke:#181818;stroke-width:1.0;"/><polygon fill="#181818" points="503.12,674.1969,507.8801,665.5747,503.5506,669.2154,499.9099,664.8859,503.12,674.1969" style="stroke:#181818;stroke-width:1.0;"/><text fill="#000000" font-family="sans-serif" font-size="13" lengthAdjust="spacing" textLength="35.0518" x="507.39" y="640.7338">finish</text></g><!--link everything_else to aborted--><g id="link_everything_else_aborted"><path d="M332.49,573.7569 C296.06,598.0669 257.89,622.6669 221.39,644.6669 C204.54,654.8269 191.1701,662.3246 173.8501,671.5146 " fill="none" id="everything_else-to-aborted" style="stroke:#181818;stroke-width:1.0;"/><polygon fill="#181818" points="168.55,674.3269,178.375,673.6419,172.9668,671.9833,174.6253,666.5751,168.55,674.3269" style="stroke:#181818;stroke-width:1.0;"/><text fill="#000000" font-family="sans-serif" font-size="13" lengthAdjust="spacing" textLength="34.6138" x="248.39" y="640.7338">abort</text></g><!--link everything_else to cancelled--><g id="link_everything_else_cancelled"><path d="M714.43,590.7869 C739.35,609.3469 764.77,627.7269 789.39,644.6669 C804.06,654.7569 815.2579,661.9721 830.3879,671.2021 " fill="none" id="everything_else-to-cancelled" style="stroke:#181818;stroke-width:1.0;"/><polygon fill="#181818" points="835.51,674.3269,829.91,666.225,831.2416,671.7229,825.7437,673.0545,835.51,674.3269" style="stroke:#181818;stroke-width:1.0;"/><text fill="#000000" font-family="sans-serif" font-size="13" lengthAdjust="spacing" textLength="42.1104" x="790.39" y="640.7338">cancel</text></g><!--link success to success--><g id="link_success_success"><path d="M600.65,694.0669 C620.82,695.4769 635.23,699.7169 635.23,706.7869 C635.23,713.8569 626.8056,717.6814 606.6356,719.0814 " fill="none" id="success-to-success" style="stroke:#181818;stroke-width:1.0;"/><polygon fill="#181818" points="600.65,719.4969,609.9054,722.8641,605.638,719.1507,609.3514,714.8833,600.65,719.4969" style="stroke:#181818;stroke-width:1.0;"/><text fill="#000000" font-family="sans-serif" font-size="13" lengthAdjust="spacing" textLength="130.9458" x="641.23" y="711.3538">ready, finish, cancel</text></g><!--link success to error--><g id="link_success_error"><path d="M555.53,739.3769 C595.3,762.1669 643.5435,789.8148 683.2635,812.5648 " fill="none" id="success-to-error" style="stroke:#181818;stroke-width:1.0;"/><polygon fill="#181818" points="688.47,815.5469,682.6483,807.6028,684.1313,813.0618,678.6723,814.5448,688.47,815.5469" style="stroke:#181818;stroke-width:1.0;"/><text fill="#000000" font-family="sans-serif" font-size="13" lengthAdjust="spacing" textLength="34.6138" x="637.39" y="781.9738">abort</text></g><!--link aborted to aborted--><g id="link_aborted_aborted"><path d="M206.02,694.0469 C226.28,695.4369 240.78,699.6869 240.78,706.7869 C240.78,713.8869 232.2661,717.7291 212.0061,719.1091 " fill="none" id="aborted-to-aborted" style="stroke:#181818;stroke-width:1.0;"/><polygon fill="#181818" points="206.02,719.5169,215.271,722.896,211.0084,719.1771,214.7274,714.9145,206.02,719.5169" style="stroke:#181818;stroke-width:1.0;"/><text fill="#000000" font-family="sans-serif" font-size="13" lengthAdjust="spacing" textLength="130.5078" x="246.78" y="711.3538">ready, abort, cancel</text></g><!--link aborted to error--><g id="link_aborted_error"><path d="M206.27,729.6169 C326.81,755.9669 522.2084,798.6756 641.1584,824.6756 " fill="none" id="aborted-to-error" style="stroke:#181818;stroke-width:1.0;"/><polygon fill="#181818" points="647.02,825.9569,639.0817,820.1273,642.1353,824.8892,637.3734,827.9428,647.02,825.9569" style="stroke:#181818;stroke-width:1.0;"/><text fill="#000000" font-family="sans-serif" font-size="13" lengthAdjust="spacing" textLength="35.0518" x="463.39" y="781.9738">finish</text></g><!--link cancelled to cancelled--><g id="link_cancelled_cancelled"><path d="M983.44,693.9569 C1003.59,695.2369 1018.17,699.5069 1018.17,706.7869 C1018.17,714.0569 1009.5779,717.9565 989.4279,719.2365 " fill="none" id="cancelled-to-cancelled" style="stroke:#181818;stroke-width:1.0;"/><polygon fill="#181818" points="983.44,719.6169,992.6755,723.0383,988.4299,719.2999,992.1683,715.0544,983.44,719.6169" style="stroke:#181818;stroke-width:1.0;"/><text fill="#000000" font-family="sans-serif" font-size="13" lengthAdjust="spacing" textLength="87.6294" x="1024.17" y="711.3538">ready, cancel</text></g><!--link cancelled to error--><g id="link_cancelled_error"><path d="M856.26,739.3769 C832.37,762.1669 804.5924,788.6564 780.7324,811.4064 " fill="none" id="cancelled-to-error" style="stroke:#181818;stroke-width:1.0;"/><polygon fill="#181818" points="776.39,815.5469,785.664,812.2312,780.0087,812.0965,780.1434,806.4413,776.39,815.5469" style="stroke:#181818;stroke-width:1.0;"/><text fill="#000000" font-family="sans-serif" font-size="13" lengthAdjust="spacing" textLength="77.9302" x="825.39" y="781.9738">finish, abort</text></g><!--link error to error--><g id="link_error_error"><path d="M839.58,835.2269 C859.76,836.5469 874.3,840.8169 874.3,848.0169 C874.3,855.2269 865.747,859.0923 845.567,860.4223 " fill="none" id="error-to-error" style="stroke:#181818;stroke-width:1.0;"/><polygon fill="#181818" points="839.58,860.8169,848.8236,864.2163,844.5692,860.4881,848.2975,856.2337,839.58,860.8169" style="stroke:#181818;stroke-width:1.0;"/><text fill="#000000" font-family="sans-serif" font-size="13" lengthAdjust="spacing" textLength="173.8242" x="880.3" y="852.5838">ready, finish, abort, cancel</text></g><!--SRC=[VLGzZzGm4EtzAqRNd8GsMI5HRK53XGG5kkiGEZd9P6F9iHTxV4T0_7V6ZlEv4LqoUNxp_EPDpe_YoGPN8xJMGQFarSaUhcZGIUAA9EY8RlvoFj-qD1HwNTQsdr_4ura8GOeqmXTRImtV0he1daWImbTPTygW4D_V_O2Y-0Z1AAD8IQr-OoF4vXKkyDmXv0hyJ3m-yRJEzY3XK_dXVM6iOG4thLZ022eFUHuSocPu07n51YeFrkW13DRelMHciX1vqFZKmRex5c8M_AKyeM5_RCi5facAzYsBnhuPlXytSmF3pFK5jKScIIhsQ4RAoZfARTBJ0QAMt5RhX1cV3q3e74_f0Yr_y9qGerzx6N_c0QpjFxh0pTbe49-yW0zLhqWi9IYSkdQKQ5wuV7LSXmZqx6CaNAg5nfOsX30p_XNtFZtFth9bDwRWgNcGPgquPuAwc4hfmLY20KaSkbvtV416OpXCuz3WCrCgG-ZcMWn6fe7UDidlqm6XjoaEol1Yv9Fz66xmdGswWGg1k6sSAKjJMWTFl4Fg5G_eKXQbQL9lOrsVWEKTilXFfkwmUOG-rFKubnoA8z9z_8um1m4K2tdSiN4UQHqnNPnln8DPeHnIS2P-qXeKsy-J3PfyEMEAZUHqjLDMVfhQhh5JuaVTOhd88gYLAghE6nwbhM0LrZBujCyogib_FpuI74zW0cvDoh9IOLQrXkxtSEtT8koDax5ygOODBEQBXJbMo7yZdBGhQyeLRZ-Oh2nBskAseawJPLCvwjf6EUfZ2SqCKVolTGvhuhXMmppl9aOrGTPjThFRcFKF]--></g></svg>